<?xml version="1.0" encoding="UTF-8" standalone="no"?>
<!DOCTYPE svg PUBLIC "-//W3C//DTD SVG 1.1//EN"
 "http://www.w3.org/Graphics/SVG/1.1/DTD/svg11.dtd">
<!-- Generated by graphviz version 2.42.3 (0)
 -->
<!-- Title: client.h Pages: 1 -->
<svg width="289pt" height="196pt"
 viewBox="0.00 0.00 289.00 196.00" xmlns="http://www.w3.org/2000/svg" xmlns:xlink="http://www.w3.org/1999/xlink">
<g id="graph0" class="graph" transform="scale(1 1) rotate(0) translate(4 192)">
<title>client.h</title>
<polygon fill="white" stroke="transparent" points="-4,4 -4,-192 285,-192 285,4 -4,4"/>
<!-- Node1 -->
<g id="node1" class="node">
<title>Node1</title>
<g id="a_node1"><a xlink:title="Contains structure and interface for client interaction.">
<polygon fill="#bfbfbf" stroke="black" points="44,-168.5 44,-187.5 97,-187.5 97,-168.5 44,-168.5"/>
<text text-anchor="middle" x="70.5" y="-175.5" font-family="Helvetica,sans-Serif" font-size="10.00">client.h</text>
</a>
</g>
</g>
<!-- Node2 -->
<g id="node2" class="node">
<title>Node2</title>
<g id="a_node2"><a xlink:title=" ">
<polygon fill="white" stroke="#bfbfbf" points="0,-0.5 0,-19.5 53,-19.5 53,-0.5 0,-0.5"/>
<text text-anchor="middle" x="26.5" y="-7.5" font-family="Helvetica,sans-Serif" font-size="10.00">stdint.h</text>
</a>
</g>
</g>
<!-- Node1&#45;&gt;Node2 -->
<g id="edge1" class="edge">
<title>Node1&#45;&gt;Node2</title>
<path fill="none" stroke="midnightblue" d="M66,-168.38C57.33,-151.3 38.46,-111.71 30.5,-76 27.08,-60.64 26.19,-42.76 26.1,-29.65"/>
<polygon fill="midnightblue" stroke="midnightblue" points="29.6,-29.56 26.18,-19.53 22.6,-29.51 29.6,-29.56"/>
</g>
<!-- Node3 -->
<g id="node3" class="node">
<title>Node3</title>
<g id="a_node3"><a xlink:href="packet_8h.html" target="_top" xlink:title="Contains functions for working with packets that GUDP library instances (Server and Client) send and ...">
<polygon fill="white" stroke="black" points="55.5,-56.5 55.5,-75.5 171.5,-75.5 171.5,-56.5 55.5,-56.5"/>
<text text-anchor="middle" x="113.5" y="-63.5" font-family="Helvetica,sans-Serif" font-size="10.00">networking/packet.h</text>
</a>
</g>
</g>
<!-- Node1&#45;&gt;Node3 -->
<g id="edge2" class="edge">
<title>Node1&#45;&gt;Node3</title>
<path fill="none" stroke="midnightblue" d="M72.63,-168.42C75.87,-155.83 82.51,-131.69 90.5,-112 94.25,-102.75 99.21,-92.84 103.56,-84.68"/>
<polygon fill="midnightblue" stroke="midnightblue" points="106.72,-86.2 108.45,-75.75 100.58,-82.84 106.72,-86.2"/>
</g>
<!-- Node6 -->
<g id="node6" class="node">
<title>Node6</title>
<g id="a_node6"><a xlink:href="socket_8h.html" target="_top" xlink:title="Provides structures and functions for convenient, platform&#45;independent socket creation,...">
<polygon fill="white" stroke="black" points="99,-112.5 99,-131.5 214,-131.5 214,-112.5 99,-112.5"/>
<text text-anchor="middle" x="156.5" y="-119.5" font-family="Helvetica,sans-Serif" font-size="10.00">networking/socket.h</text>
</a>
</g>
</g>
<!-- Node1&#45;&gt;Node6 -->
<g id="edge6" class="edge">
<title>Node1&#45;&gt;Node6</title>
<path fill="none" stroke="midnightblue" d="M84.32,-168.32C97.73,-159.9 118.32,-146.97 134.09,-137.07"/>
<polygon fill="midnightblue" stroke="midnightblue" points="136.11,-139.94 142.72,-131.65 132.39,-134.01 136.11,-139.94"/>
</g>
<!-- Node3&#45;&gt;Node2 -->
<g id="edge4" class="edge">
<title>Node3&#45;&gt;Node2</title>
<path fill="none" stroke="midnightblue" d="M99.52,-56.32C85.95,-47.9 65.12,-34.97 49.18,-25.07"/>
<polygon fill="midnightblue" stroke="midnightblue" points="50.79,-21.95 40.44,-19.65 47.09,-27.9 50.79,-21.95"/>
</g>
<!-- Node4 -->
<g id="node4" class="node">
<title>Node4</title>
<g id="a_node4"><a xlink:title=" ">
<polygon fill="white" stroke="#bfbfbf" points="71.5,-0.5 71.5,-19.5 127.5,-19.5 127.5,-0.5 71.5,-0.5"/>
<text text-anchor="middle" x="99.5" y="-7.5" font-family="Helvetica,sans-Serif" font-size="10.00">stddef.h</text>
</a>
</g>
</g>
<!-- Node3&#45;&gt;Node4 -->
<g id="edge3" class="edge">
<title>Node3&#45;&gt;Node4</title>
<path fill="none" stroke="midnightblue" d="M111.19,-56.08C109.33,-48.93 106.66,-38.64 104.35,-29.69"/>
<polygon fill="midnightblue" stroke="midnightblue" points="107.67,-28.55 101.77,-19.75 100.89,-30.31 107.67,-28.55"/>
</g>
<!-- Node5 -->
<g id="node5" class="node">
<title>Node5</title>
<g id="a_node5"><a xlink:href="retcode_8h.html" target="_top" xlink:title="Contains enum with GUDP return codes.">
<polygon fill="white" stroke="black" points="145.5,-0.5 145.5,-19.5 253.5,-19.5 253.5,-0.5 145.5,-0.5"/>
<text text-anchor="middle" x="199.5" y="-7.5" font-family="Helvetica,sans-Serif" font-size="10.00">common/retcode.h</text>
</a>
</g>
</g>
<!-- Node3&#45;&gt;Node5 -->
<g id="edge5" class="edge">
<title>Node3&#45;&gt;Node5</title>
<path fill="none" stroke="midnightblue" d="M127.32,-56.32C140.73,-47.9 161.32,-34.97 177.09,-25.07"/>
<polygon fill="midnightblue" stroke="midnightblue" points="179.11,-27.94 185.72,-19.65 175.39,-22.01 179.11,-27.94"/>
</g>
<!-- Node6&#45;&gt;Node2 -->
<g id="edge7" class="edge">
<title>Node6&#45;&gt;Node2</title>
<path fill="none" stroke="midnightblue" d="M112.42,-112.43C89.9,-105.94 63.69,-94.81 46.5,-76 34.94,-63.35 30.06,-44.14 28,-29.88"/>
<polygon fill="midnightblue" stroke="midnightblue" points="31.45,-29.28 26.88,-19.73 24.49,-30.05 31.45,-29.28"/>
</g>
<!-- Node6&#45;&gt;Node3 -->
<g id="edge10" class="edge">
<title>Node6&#45;&gt;Node3</title>
<path fill="none" stroke="midnightblue" d="M149.4,-112.08C143.26,-104.38 134.23,-93.03 126.76,-83.65"/>
<polygon fill="midnightblue" stroke="midnightblue" points="129.44,-81.39 120.47,-75.75 123.96,-85.75 129.44,-81.39"/>
</g>
<!-- Node6&#45;&gt;Node5 -->
<g id="edge9" class="edge">
<title>Node6&#45;&gt;Node5</title>
<path fill="none" stroke="midnightblue" d="M161.84,-112.3C167.11,-103.42 175.15,-89.12 180.5,-76 186.74,-60.69 191.86,-42.59 195.2,-29.38"/>
<polygon fill="midnightblue" stroke="midnightblue" points="198.62,-30.15 197.58,-19.6 191.82,-28.49 198.62,-30.15"/>
</g>
<!-- Node7 -->
<g id="node7" class="node">
<title>Node7</title>
<g id="a_node7"><a xlink:title=" ">
<polygon fill="white" stroke="#bfbfbf" points="228,-56.5 228,-75.5 281,-75.5 281,-56.5 228,-56.5"/>
<text text-anchor="middle" x="254.5" y="-63.5" font-family="Helvetica,sans-Serif" font-size="10.00">string.h</text>
</a>
</g>
</g>
<!-- Node6&#45;&gt;Node7 -->
<g id="edge8" class="edge">
<title>Node6&#45;&gt;Node7</title>
<path fill="none" stroke="midnightblue" d="M172.25,-112.32C187.82,-103.74 211.88,-90.49 229.96,-80.52"/>
<polygon fill="midnightblue" stroke="midnightblue" points="231.72,-83.55 238.79,-75.65 228.35,-77.42 231.72,-83.55"/>
</g>
</g>
</svg>
