<?xml version="1.0" encoding="UTF-8" standalone="no"?>
<!DOCTYPE svg PUBLIC "-//W3C//DTD SVG 1.1//EN"
 "http://www.w3.org/Graphics/SVG/1.1/DTD/svg11.dtd">
<!-- Generated by graphviz version 2.42.3 (0)
 -->
<!-- Title: server Pages: 1 -->
<svg width="119pt" height="223pt"
 viewBox="0.00 0.00 118.50 223.00" xmlns="http://www.w3.org/2000/svg" xmlns:xlink="http://www.w3.org/1999/xlink">
<g id="graph0" class="graph" transform="scale(1 1) rotate(0) translate(4 219)">
<title>server</title>
<polygon fill="white" stroke="transparent" points="-4,4 -4,-219 114.5,-219 114.5,4 -4,4"/>
<g id="clust1" class="cluster">
<title>clusterdir_d44c64559bbebec7f509842c48db8b23</title>
<g id="a_clust1"><a xlink:href="dir_d44c64559bbebec7f509842c48db8b23.html" target="_top" xlink:title="include">
<polygon fill="#ddddee" stroke="black" points="32.5,-136 32.5,-207 102.5,-207 102.5,-136 32.5,-136"/>
<text text-anchor="middle" x="67.5" y="-195" font-family="Helvetica,sans-Serif" font-size="10.00">include</text>
</a>
</g>
</g>
<!-- dir_9802b4c1251697bb7aa87f8aabca2719 -->
<g id="node1" class="node">
<title>dir_9802b4c1251697bb7aa87f8aabca2719</title>
<g id="a_node1"><a xlink:href="dir_9802b4c1251697bb7aa87f8aabca2719.html" target="_top" xlink:title="server">
<polygon fill="#eeeeff" stroke="black" points="94.5,-180 40.5,-180 40.5,-144 94.5,-144 94.5,-180"/>
<text text-anchor="middle" x="67.5" y="-159.5" font-family="Helvetica,sans-Serif" font-size="10.00">server</text>
</a>
</g>
</g>
<!-- dir_f399957494199e923c078e1d93d531d6 -->
<g id="node2" class="node">
<title>dir_f399957494199e923c078e1d93d531d6</title>
<g id="a_node2"><a xlink:href="dir_f399957494199e923c078e1d93d531d6.html" target="_top" xlink:title="networking">
<polygon fill="none" stroke="black" points="71,-108 0,-108 0,-72 71,-72 71,-108"/>
<text text-anchor="middle" x="35.5" y="-87.5" font-family="Helvetica,sans-Serif" font-size="10.00">networking</text>
</a>
</g>
</g>
<!-- dir_9802b4c1251697bb7aa87f8aabca2719&#45;&gt;dir_f399957494199e923c078e1d93d531d6 -->
<g id="edge1" class="edge">
<title>dir_9802b4c1251697bb7aa87f8aabca2719&#45;&gt;dir_f399957494199e923c078e1d93d531d6</title>
<path fill="none" stroke="black" d="M59.59,-143.7C55.95,-135.73 51.55,-126.1 47.51,-117.26"/>
<polygon fill="black" stroke="black" points="50.66,-115.74 43.32,-108.1 44.29,-118.65 50.66,-115.74"/>
<g id="a_edge1&#45;headlabel"><a xlink:href="dir_000004_000003.html" target="_top" xlink:title="2">
<text text-anchor="middle" x="54.74" y="-115.33" font-family="Helvetica,sans-Serif" font-size="10.00">2</text>
</a>
</g>
</g>
<!-- dir_0966d06610f72609fd9aa4979c2b5a92 -->
<g id="node3" class="node">
<title>dir_0966d06610f72609fd9aa4979c2b5a92</title>
<g id="a_node3"><a xlink:href="dir_0966d06610f72609fd9aa4979c2b5a92.html" target="_top" xlink:title="common">
<polygon fill="none" stroke="black" points="97,-36 38,-36 38,0 97,0 97,-36"/>
<text text-anchor="middle" x="67.5" y="-15.5" font-family="Helvetica,sans-Serif" font-size="10.00">common</text>
</a>
</g>
</g>
<!-- dir_9802b4c1251697bb7aa87f8aabca2719&#45;&gt;dir_0966d06610f72609fd9aa4979c2b5a92 -->
<g id="edge2" class="edge">
<title>dir_9802b4c1251697bb7aa87f8aabca2719&#45;&gt;dir_0966d06610f72609fd9aa4979c2b5a92</title>
<path fill="none" stroke="black" d="M72.91,-143.53C75.8,-133.29 79.05,-120.04 80.5,-108 82.42,-92.12 82.42,-87.88 80.5,-72 79.48,-63.53 77.57,-54.47 75.52,-46.28"/>
<polygon fill="black" stroke="black" points="78.86,-45.23 72.91,-36.47 72.1,-47.03 78.86,-45.23"/>
<g id="a_edge2&#45;headlabel"><a xlink:href="dir_000004_000002.html" target="_top" xlink:title="2">
<text text-anchor="middle" x="82.53" y="-45.48" font-family="Helvetica,sans-Serif" font-size="10.00">2</text>
</a>
</g>
</g>
<!-- dir_f399957494199e923c078e1d93d531d6&#45;&gt;dir_0966d06610f72609fd9aa4979c2b5a92 -->
<g id="edge3" class="edge">
<title>dir_f399957494199e923c078e1d93d531d6&#45;&gt;dir_0966d06610f72609fd9aa4979c2b5a92</title>
<path fill="none" stroke="black" d="M43.41,-71.7C47.05,-63.73 51.45,-54.1 55.49,-45.26"/>
<polygon fill="black" stroke="black" points="58.71,-46.65 59.68,-36.1 52.34,-43.74 58.71,-46.65"/>
<g id="a_edge3&#45;headlabel"><a xlink:href="dir_000003_000002.html" target="_top" xlink:title="2">
<text text-anchor="middle" x="59.79" y="-48.6" font-family="Helvetica,sans-Serif" font-size="10.00">2</text>
</a>
</g>
</g>
</g>
</svg>
