<?xml version="1.0" encoding="UTF-8" standalone="no"?>
<!DOCTYPE svg PUBLIC "-//W3C//DTD SVG 1.1//EN"
 "http://www.w3.org/Graphics/SVG/1.1/DTD/svg11.dtd">
<!-- Generated by graphviz version 2.42.3 (0)
 -->
<!-- Title: client Pages: 1 -->
<svg width="94pt" height="151pt"
 viewBox="0.00 0.00 94.00 151.00" xmlns="http://www.w3.org/2000/svg" xmlns:xlink="http://www.w3.org/1999/xlink">
<g id="graph0" class="graph" transform="scale(1 1) rotate(0) translate(4 147)">
<title>client</title>
<polygon fill="white" stroke="transparent" points="-4,4 -4,-147 90,-147 90,4 -4,4"/>
<g id="clust1" class="cluster">
<title>clusterdir_d44c64559bbebec7f509842c48db8b23</title>
<g id="a_clust1"><a xlink:href="dir_d44c64559bbebec7f509842c48db8b23.html" target="_top" xlink:title="include">
<polygon fill="#ddddee" stroke="black" points="8,-64 8,-135 78,-135 78,-64 8,-64"/>
<text text-anchor="middle" x="43" y="-123" font-family="Helvetica,sans-Serif" font-size="10.00">include</text>
</a>
</g>
</g>
<!-- dir_eca4379131abe55f66c454f8d4bf8fd2 -->
<g id="node1" class="node">
<title>dir_eca4379131abe55f66c454f8d4bf8fd2</title>
<g id="a_node1"><a xlink:href="dir_eca4379131abe55f66c454f8d4bf8fd2.html" target="_top" xlink:title="client">
<polygon fill="#eeeeff" stroke="black" points="70,-108 16,-108 16,-72 70,-72 70,-108"/>
<text text-anchor="middle" x="43" y="-87.5" font-family="Helvetica,sans-Serif" font-size="10.00">client</text>
</a>
</g>
</g>
<!-- dir_f399957494199e923c078e1d93d531d6 -->
<g id="node2" class="node">
<title>dir_f399957494199e923c078e1d93d531d6</title>
<g id="a_node2"><a xlink:href="dir_f399957494199e923c078e1d93d531d6.html" target="_top" xlink:title="networking">
<polygon fill="none" stroke="black" points="78.5,-36 7.5,-36 7.5,0 78.5,0 78.5,-36"/>
<text text-anchor="middle" x="43" y="-15.5" font-family="Helvetica,sans-Serif" font-size="10.00">networking</text>
</a>
</g>
</g>
<!-- dir_eca4379131abe55f66c454f8d4bf8fd2&#45;&gt;dir_f399957494199e923c078e1d93d531d6 -->
<g id="edge1" class="edge">
<title>dir_eca4379131abe55f66c454f8d4bf8fd2&#45;&gt;dir_f399957494199e923c078e1d93d531d6</title>
<path fill="none" stroke="black" d="M43,-71.7C43,-63.98 43,-54.71 43,-46.11"/>
<polygon fill="black" stroke="black" points="46.5,-46.1 43,-36.1 39.5,-46.1 46.5,-46.1"/>
<g id="a_edge1&#45;headlabel"><a xlink:href="dir_000001_000003.html" target="_top" xlink:title="2">
<text text-anchor="middle" x="49.34" y="-47.2" font-family="Helvetica,sans-Serif" font-size="10.00">2</text>
</a>
</g>
</g>
</g>
</svg>
