<?xml version="1.0" encoding="UTF-8" standalone="no"?>
<!DOCTYPE svg PUBLIC "-//W3C//DTD SVG 1.1//EN"
 "http://www.w3.org/Graphics/SVG/1.1/DTD/svg11.dtd">
<!-- Generated by graphviz version 2.42.3 (0)
 -->
<!-- Title: include Pages: 1 -->
<svg width="238pt" height="220pt"
 viewBox="0.00 0.00 238.00 220.00" xmlns="http://www.w3.org/2000/svg" xmlns:xlink="http://www.w3.org/1999/xlink">
<g id="graph0" class="graph" transform="scale(1 1) rotate(0) translate(4 216)">
<title>include</title>
<polygon fill="white" stroke="transparent" points="-4,4 -4,-216 234,-216 234,4 -4,4"/>
<g id="clust1" class="cluster">
<title>clusterdir_d44c64559bbebec7f509842c48db8b23</title>
<g id="a_clust1"><a xlink:href="dir_d44c64559bbebec7f509842c48db8b23.html" target="_top">
<polygon fill="#eeeeff" stroke="black" points="8,-8 8,-204 222,-204 222,-8 8,-8"/>
</a>
</g>
</g>
<!-- dir_d44c64559bbebec7f509842c48db8b23 -->
<g id="node1" class="node">
<title>dir_d44c64559bbebec7f509842c48db8b23</title>
<text text-anchor="middle" x="187" y="-175.5" font-family="Helvetica,sans-Serif" font-size="10.00">include</text>
</g>
<!-- dir_eca4379131abe55f66c454f8d4bf8fd2 -->
<g id="node2" class="node">
<title>dir_eca4379131abe55f66c454f8d4bf8fd2</title>
<g id="a_node2"><a xlink:href="dir_eca4379131abe55f66c454f8d4bf8fd2.html" target="_top" xlink:title="client">
<polygon fill="white" stroke="black" points="142,-196 88,-196 88,-160 142,-160 142,-196"/>
<text text-anchor="middle" x="115" y="-175.5" font-family="Helvetica,sans-Serif" font-size="10.00">client</text>
</a>
</g>
</g>
<!-- dir_f399957494199e923c078e1d93d531d6 -->
<g id="node4" class="node">
<title>dir_f399957494199e923c078e1d93d531d6</title>
<g id="a_node4"><a xlink:href="dir_f399957494199e923c078e1d93d531d6.html" target="_top" xlink:title="networking">
<polygon fill="white" stroke="black" points="133.5,-124 62.5,-124 62.5,-88 133.5,-88 133.5,-124"/>
<text text-anchor="middle" x="98" y="-103.5" font-family="Helvetica,sans-Serif" font-size="10.00">networking</text>
</a>
</g>
</g>
<!-- dir_eca4379131abe55f66c454f8d4bf8fd2&#45;&gt;dir_f399957494199e923c078e1d93d531d6 -->
<g id="edge3" class="edge">
<title>dir_eca4379131abe55f66c454f8d4bf8fd2&#45;&gt;dir_f399957494199e923c078e1d93d531d6</title>
<path fill="none" stroke="black" d="M110.8,-159.7C108.9,-151.9 106.62,-142.51 104.52,-133.83"/>
<polygon fill="black" stroke="black" points="107.92,-133 102.15,-124.1 101.11,-134.65 107.92,-133"/>
<g id="a_edge3&#45;headlabel"><a xlink:href="dir_000001_000003.html" target="_top" xlink:title="2">
<text text-anchor="middle" x="111.52" y="-133.32" font-family="Helvetica,sans-Serif" font-size="10.00">2</text>
</a>
</g>
</g>
<!-- dir_0966d06610f72609fd9aa4979c2b5a92 -->
<g id="node3" class="node">
<title>dir_0966d06610f72609fd9aa4979c2b5a92</title>
<g id="a_node3"><a xlink:href="dir_0966d06610f72609fd9aa4979c2b5a92.html" target="_top" xlink:title="common">
<polygon fill="white" stroke="black" points="101.5,-52 42.5,-52 42.5,-16 101.5,-16 101.5,-52"/>
<text text-anchor="middle" x="72" y="-31.5" font-family="Helvetica,sans-Serif" font-size="10.00">common</text>
</a>
</g>
</g>
<!-- dir_f399957494199e923c078e1d93d531d6&#45;&gt;dir_0966d06610f72609fd9aa4979c2b5a92 -->
<g id="edge4" class="edge">
<title>dir_f399957494199e923c078e1d93d531d6&#45;&gt;dir_0966d06610f72609fd9aa4979c2b5a92</title>
<path fill="none" stroke="black" d="M91.57,-87.7C88.64,-79.81 85.11,-70.3 81.86,-61.55"/>
<polygon fill="black" stroke="black" points="85.12,-60.26 78.35,-52.1 78.55,-62.7 85.12,-60.26"/>
<g id="a_edge4&#45;headlabel"><a xlink:href="dir_000003_000002.html" target="_top" xlink:title="2">
<text text-anchor="middle" x="89.03" y="-60.14" font-family="Helvetica,sans-Serif" font-size="10.00">2</text>
</a>
</g>
</g>
<!-- dir_9802b4c1251697bb7aa87f8aabca2719 -->
<g id="node5" class="node">
<title>dir_9802b4c1251697bb7aa87f8aabca2719</title>
<g id="a_node5"><a xlink:href="dir_9802b4c1251697bb7aa87f8aabca2719.html" target="_top" xlink:title="server">
<polygon fill="white" stroke="black" points="70,-196 16,-196 16,-160 70,-160 70,-196"/>
<text text-anchor="middle" x="43" y="-175.5" font-family="Helvetica,sans-Serif" font-size="10.00">server</text>
</a>
</g>
</g>
<!-- dir_9802b4c1251697bb7aa87f8aabca2719&#45;&gt;dir_0966d06610f72609fd9aa4979c2b5a92 -->
<g id="edge2" class="edge">
<title>dir_9802b4c1251697bb7aa87f8aabca2719&#45;&gt;dir_0966d06610f72609fd9aa4979c2b5a92</title>
<path fill="none" stroke="black" d="M44.08,-159.76C45.46,-141.69 48.37,-112.58 54,-88 55.97,-79.38 58.82,-70.19 61.67,-61.93"/>
<polygon fill="black" stroke="black" points="65,-63 65.08,-52.41 58.41,-60.64 65,-63"/>
<g id="a_edge2&#45;headlabel"><a xlink:href="dir_000004_000002.html" target="_top" xlink:title="2">
<text text-anchor="middle" x="66.46" y="-64.84" font-family="Helvetica,sans-Serif" font-size="10.00">2</text>
</a>
</g>
</g>
<!-- dir_9802b4c1251697bb7aa87f8aabca2719&#45;&gt;dir_f399957494199e923c078e1d93d531d6 -->
<g id="edge1" class="edge">
<title>dir_9802b4c1251697bb7aa87f8aabca2719&#45;&gt;dir_f399957494199e923c078e1d93d531d6</title>
<path fill="none" stroke="black" d="M56.6,-159.7C63.12,-151.39 71.07,-141.28 78.25,-132.14"/>
<polygon fill="black" stroke="black" points="81.13,-134.13 84.56,-124.1 75.63,-129.81 81.13,-134.13"/>
<g id="a_edge1&#45;headlabel"><a xlink:href="dir_000004_000003.html" target="_top" xlink:title="2">
<text text-anchor="middle" x="81.15" y="-136.21" font-family="Helvetica,sans-Serif" font-size="10.00">2</text>
</a>
</g>
</g>
</g>
</svg>
