<?xml version="1.0" encoding="UTF-8" standalone="no"?>
<!DOCTYPE svg PUBLIC "-//W3C//DTD SVG 1.1//EN"
 "http://www.w3.org/Graphics/SVG/1.1/DTD/svg11.dtd">
<!-- Generated by graphviz version 2.42.3 (0)
 -->
<!-- Title: packet.h Pages: 1 -->
<svg width="179pt" height="196pt"
 viewBox="0.00 0.00 178.50 196.00" xmlns="http://www.w3.org/2000/svg" xmlns:xlink="http://www.w3.org/1999/xlink">
<g id="graph0" class="graph" transform="scale(1 1) rotate(0) translate(4 192)">
<title>packet.h</title>
<polygon fill="white" stroke="transparent" points="-4,4 -4,-192 174.5,-192 174.5,4 -4,4"/>
<!-- Node1 -->
<g id="node1" class="node">
<title>Node1</title>
<g id="a_node1"><a xlink:title="Contains functions for working with packets that GUDP library instances (Server and Client) send and ...">
<polygon fill="#bfbfbf" stroke="black" points="67.5,-168.5 67.5,-187.5 125.5,-187.5 125.5,-168.5 67.5,-168.5"/>
<text text-anchor="middle" x="96.5" y="-175.5" font-family="Helvetica,sans-Serif" font-size="10.00">packet.h</text>
</a>
</g>
</g>
<!-- Node2 -->
<g id="node2" class="node">
<title>Node2</title>
<g id="a_node2"><a xlink:href="client_8h.html" target="_top" xlink:title="Contains structure and interface for client interaction.">
<polygon fill="white" stroke="black" points="0,-56.5 0,-75.5 53,-75.5 53,-56.5 0,-56.5"/>
<text text-anchor="middle" x="26.5" y="-63.5" font-family="Helvetica,sans-Serif" font-size="10.00">client.h</text>
</a>
</g>
</g>
<!-- Node1&#45;&gt;Node2 -->
<g id="edge1" class="edge">
<title>Node1&#45;&gt;Node2</title>
<path fill="none" stroke="midnightblue" d="M81.13,-160.78C73.77,-152.53 65.13,-142.14 58.5,-132 46.1,-113.05 35.32,-88.62 30.01,-75.78"/>
<polygon fill="midnightblue" stroke="midnightblue" points="78.61,-163.2 87.95,-168.21 83.77,-158.47 78.61,-163.2"/>
</g>
<!-- Node3 -->
<g id="node3" class="node">
<title>Node3</title>
<g id="a_node3"><a xlink:href="socket_8h.html" target="_top" xlink:title="Provides structures and functions for convenient, platform&#45;independent socket creation,...">
<polygon fill="white" stroke="black" points="68,-112.5 68,-131.5 125,-131.5 125,-112.5 68,-112.5"/>
<text text-anchor="middle" x="96.5" y="-119.5" font-family="Helvetica,sans-Serif" font-size="10.00">socket.h</text>
</a>
</g>
</g>
<!-- Node1&#45;&gt;Node3 -->
<g id="edge2" class="edge">
<title>Node1&#45;&gt;Node3</title>
<path fill="none" stroke="midnightblue" d="M96.5,-157.8C96.5,-148.91 96.5,-138.78 96.5,-131.75"/>
<polygon fill="midnightblue" stroke="midnightblue" points="93,-158.08 96.5,-168.08 100,-158.08 93,-158.08"/>
</g>
<!-- Node5 -->
<g id="node5" class="node">
<title>Node5</title>
<g id="a_node5"><a xlink:href="server_8h.html" target="_top" xlink:title="Contains structure and interface for server interaction.">
<polygon fill="white" stroke="black" points="114.5,-0.5 114.5,-19.5 170.5,-19.5 170.5,-0.5 114.5,-0.5"/>
<text text-anchor="middle" x="142.5" y="-7.5" font-family="Helvetica,sans-Serif" font-size="10.00">server.h</text>
</a>
</g>
</g>
<!-- Node1&#45;&gt;Node5 -->
<g id="edge6" class="edge">
<title>Node1&#45;&gt;Node5</title>
<path fill="none" stroke="midnightblue" d="M111.96,-160.65C119.14,-152.48 127.41,-142.18 133.5,-132 147.31,-108.91 151.29,-102.4 156.5,-76 160.48,-55.84 152.16,-32.29 146.72,-19.81"/>
<polygon fill="midnightblue" stroke="midnightblue" points="109.14,-158.54 105.01,-168.3 114.32,-163.25 109.14,-158.54"/>
</g>
<!-- Node3&#45;&gt;Node2 -->
<g id="edge3" class="edge">
<title>Node3&#45;&gt;Node2</title>
<path fill="none" stroke="midnightblue" d="M77.19,-106.1C64.59,-96.38 48.57,-84.03 37.95,-75.83"/>
<polygon fill="midnightblue" stroke="midnightblue" points="75.2,-108.99 85.25,-112.32 79.47,-103.44 75.2,-108.99"/>
</g>
<!-- Node4 -->
<g id="node4" class="node">
<title>Node4</title>
<g id="a_node4"><a xlink:href="registrator_8h.html" target="_top" xlink:title="Contains structures and interface for server registrator. It&#39;s the data structure that link the Addre...">
<polygon fill="white" stroke="black" points="71.5,-56.5 71.5,-75.5 147.5,-75.5 147.5,-56.5 71.5,-56.5"/>
<text text-anchor="middle" x="109.5" y="-63.5" font-family="Helvetica,sans-Serif" font-size="10.00">registrator.h</text>
</a>
</g>
</g>
<!-- Node3&#45;&gt;Node4 -->
<g id="edge4" class="edge">
<title>Node3&#45;&gt;Node4</title>
<path fill="none" stroke="midnightblue" d="M101.05,-102.1C103.21,-93.14 105.68,-82.86 107.39,-75.75"/>
<polygon fill="midnightblue" stroke="midnightblue" points="97.58,-101.54 98.65,-112.08 104.39,-103.18 97.58,-101.54"/>
</g>
<!-- Node4&#45;&gt;Node5 -->
<g id="edge5" class="edge">
<title>Node4&#45;&gt;Node5</title>
<path fill="none" stroke="midnightblue" d="M120.33,-47.27C125.97,-38.05 132.62,-27.17 137.15,-19.75"/>
<polygon fill="midnightblue" stroke="midnightblue" points="117.18,-45.73 114.95,-56.08 123.15,-49.38 117.18,-45.73"/>
</g>
</g>
</svg>
