<?xml version="1.0" encoding="UTF-8" standalone="no"?>
<!DOCTYPE svg PUBLIC "-//W3C//DTD SVG 1.1//EN"
 "http://www.w3.org/Graphics/SVG/1.1/DTD/svg11.dtd">
<!-- Generated by graphviz version 2.42.3 (0)
 -->
<!-- Title: registrator.h Pages: 1 -->
<svg width="326pt" height="196pt"
 viewBox="0.00 0.00 325.50 196.00" xmlns="http://www.w3.org/2000/svg" xmlns:xlink="http://www.w3.org/1999/xlink">
<g id="graph0" class="graph" transform="scale(1 1) rotate(0) translate(4 192)">
<title>registrator.h</title>
<polygon fill="white" stroke="transparent" points="-4,4 -4,-192 321.5,-192 321.5,4 -4,4"/>
<!-- Node1 -->
<g id="node1" class="node">
<title>Node1</title>
<g id="a_node1"><a xlink:title="Contains structures and interface for server registrator. It&#39;s the data structure that link the Addre...">
<polygon fill="#bfbfbf" stroke="black" points="216.5,-168.5 216.5,-187.5 292.5,-187.5 292.5,-168.5 216.5,-168.5"/>
<text text-anchor="middle" x="254.5" y="-175.5" font-family="Helvetica,sans-Serif" font-size="10.00">registrator.h</text>
</a>
</g>
</g>
<!-- Node2 -->
<g id="node2" class="node">
<title>Node2</title>
<g id="a_node2"><a xlink:href="retcode_8h.html" target="_top" xlink:title="Contains enum with GUDP return codes.">
<polygon fill="white" stroke="black" points="209.5,-0.5 209.5,-19.5 317.5,-19.5 317.5,-0.5 209.5,-0.5"/>
<text text-anchor="middle" x="263.5" y="-7.5" font-family="Helvetica,sans-Serif" font-size="10.00">common/retcode.h</text>
</a>
</g>
</g>
<!-- Node1&#45;&gt;Node2 -->
<g id="edge1" class="edge">
<title>Node1&#45;&gt;Node2</title>
<path fill="none" stroke="midnightblue" d="M259.88,-168.44C265.06,-159.68 272.51,-145.47 275.5,-132 283.43,-96.24 275.1,-53.37 268.9,-29.45"/>
<polygon fill="midnightblue" stroke="midnightblue" points="272.23,-28.33 266.2,-19.62 265.48,-30.19 272.23,-28.33"/>
</g>
<!-- Node3 -->
<g id="node3" class="node">
<title>Node3</title>
<g id="a_node3"><a xlink:href="socket_8h.html" target="_top" xlink:title="Provides structures and functions for convenient, platform&#45;independent socket creation,...">
<polygon fill="white" stroke="black" points="151,-112.5 151,-131.5 266,-131.5 266,-112.5 151,-112.5"/>
<text text-anchor="middle" x="208.5" y="-119.5" font-family="Helvetica,sans-Serif" font-size="10.00">networking/socket.h</text>
</a>
</g>
</g>
<!-- Node1&#45;&gt;Node3 -->
<g id="edge2" class="edge">
<title>Node1&#45;&gt;Node3</title>
<path fill="none" stroke="midnightblue" d="M246.9,-168.08C240.27,-160.3 230.48,-148.8 222.44,-139.37"/>
<polygon fill="midnightblue" stroke="midnightblue" points="225.1,-137.09 215.95,-131.75 219.77,-141.63 225.1,-137.09"/>
</g>
<!-- Node3&#45;&gt;Node2 -->
<g id="edge5" class="edge">
<title>Node3&#45;&gt;Node2</title>
<path fill="none" stroke="midnightblue" d="M217.08,-112.43C225.2,-103.88 237.21,-90.02 244.5,-76 252.13,-61.33 257.11,-43.16 260.05,-29.77"/>
<polygon fill="midnightblue" stroke="midnightblue" points="263.51,-30.31 262.05,-19.82 256.65,-28.93 263.51,-30.31"/>
</g>
<!-- Node4 -->
<g id="node4" class="node">
<title>Node4</title>
<g id="a_node4"><a xlink:title=" ">
<polygon fill="white" stroke="#bfbfbf" points="0,-0.5 0,-19.5 53,-19.5 53,-0.5 0,-0.5"/>
<text text-anchor="middle" x="26.5" y="-7.5" font-family="Helvetica,sans-Serif" font-size="10.00">stdint.h</text>
</a>
</g>
</g>
<!-- Node3&#45;&gt;Node4 -->
<g id="edge3" class="edge">
<title>Node3&#45;&gt;Node4</title>
<path fill="none" stroke="midnightblue" d="M150.58,-112.43C107.54,-104.85 53.75,-92.46 38.5,-76 27.18,-63.78 24.84,-44.51 24.93,-30.12"/>
<polygon fill="midnightblue" stroke="midnightblue" points="28.44,-30.01 25.41,-19.86 21.45,-29.68 28.44,-30.01"/>
</g>
<!-- Node5 -->
<g id="node5" class="node">
<title>Node5</title>
<g id="a_node5"><a xlink:title=" ">
<polygon fill="white" stroke="#bfbfbf" points="182,-56.5 182,-75.5 235,-75.5 235,-56.5 182,-56.5"/>
<text text-anchor="middle" x="208.5" y="-63.5" font-family="Helvetica,sans-Serif" font-size="10.00">string.h</text>
</a>
</g>
</g>
<!-- Node3&#45;&gt;Node5 -->
<g id="edge4" class="edge">
<title>Node3&#45;&gt;Node5</title>
<path fill="none" stroke="midnightblue" d="M208.5,-112.08C208.5,-105.01 208.5,-94.86 208.5,-85.99"/>
<polygon fill="midnightblue" stroke="midnightblue" points="212,-85.75 208.5,-75.75 205,-85.75 212,-85.75"/>
</g>
<!-- Node6 -->
<g id="node6" class="node">
<title>Node6</title>
<g id="a_node6"><a xlink:href="packet_8h.html" target="_top" xlink:title="Contains functions for working with packets that GUDP library instances (Server and Client) send and ...">
<polygon fill="white" stroke="black" points="47.5,-56.5 47.5,-75.5 163.5,-75.5 163.5,-56.5 47.5,-56.5"/>
<text text-anchor="middle" x="105.5" y="-63.5" font-family="Helvetica,sans-Serif" font-size="10.00">networking/packet.h</text>
</a>
</g>
</g>
<!-- Node3&#45;&gt;Node6 -->
<g id="edge6" class="edge">
<title>Node3&#45;&gt;Node6</title>
<path fill="none" stroke="midnightblue" d="M191.95,-112.32C175.51,-103.7 150.07,-90.36 131.03,-80.39"/>
<polygon fill="midnightblue" stroke="midnightblue" points="132.49,-77.2 122.01,-75.65 129.24,-83.4 132.49,-77.2"/>
</g>
<!-- Node6&#45;&gt;Node2 -->
<g id="edge9" class="edge">
<title>Node6&#45;&gt;Node2</title>
<path fill="none" stroke="midnightblue" d="M130.54,-56.44C157.12,-47.36 199.31,-32.94 229.02,-22.78"/>
<polygon fill="midnightblue" stroke="midnightblue" points="230.25,-26.06 238.58,-19.52 227.99,-19.44 230.25,-26.06"/>
</g>
<!-- Node6&#45;&gt;Node4 -->
<g id="edge8" class="edge">
<title>Node6&#45;&gt;Node4</title>
<path fill="none" stroke="midnightblue" d="M92.81,-56.32C80.6,-47.98 61.92,-35.21 47.5,-25.35"/>
<polygon fill="midnightblue" stroke="midnightblue" points="49.39,-22.41 39.16,-19.65 45.44,-28.19 49.39,-22.41"/>
</g>
<!-- Node7 -->
<g id="node7" class="node">
<title>Node7</title>
<g id="a_node7"><a xlink:title=" ">
<polygon fill="white" stroke="#bfbfbf" points="77.5,-0.5 77.5,-19.5 133.5,-19.5 133.5,-0.5 77.5,-0.5"/>
<text text-anchor="middle" x="105.5" y="-7.5" font-family="Helvetica,sans-Serif" font-size="10.00">stddef.h</text>
</a>
</g>
</g>
<!-- Node6&#45;&gt;Node7 -->
<g id="edge7" class="edge">
<title>Node6&#45;&gt;Node7</title>
<path fill="none" stroke="midnightblue" d="M105.5,-56.08C105.5,-49.01 105.5,-38.86 105.5,-29.99"/>
<polygon fill="midnightblue" stroke="midnightblue" points="109,-29.75 105.5,-19.75 102,-29.75 109,-29.75"/>
</g>
</g>
</svg>
