<?xml version="1.0" encoding="UTF-8" standalone="no"?>
<!DOCTYPE svg PUBLIC "-//W3C//DTD SVG 1.1//EN"
 "http://www.w3.org/Graphics/SVG/1.1/DTD/svg11.dtd">
<!-- Generated by graphviz version 2.42.3 (0)
 -->
<!-- Title: retcode.h Pages: 1 -->
<svg width="244pt" height="252pt"
 viewBox="0.00 0.00 244.13 252.00" xmlns="http://www.w3.org/2000/svg" xmlns:xlink="http://www.w3.org/1999/xlink">
<g id="graph0" class="graph" transform="scale(1 1) rotate(0) translate(4 248)">
<title>retcode.h</title>
<polygon fill="white" stroke="transparent" points="-4,4 -4,-248 240.13,-248 240.13,4 -4,4"/>
<!-- Node1 -->
<g id="node1" class="node">
<title>Node1</title>
<g id="a_node1"><a xlink:title="Contains enum with GUDP return codes.">
<polygon fill="#bfbfbf" stroke="black" points="129,-224.5 129,-243.5 191,-243.5 191,-224.5 129,-224.5"/>
<text text-anchor="middle" x="160" y="-231.5" font-family="Helvetica,sans-Serif" font-size="10.00">retcode.h</text>
</a>
</g>
</g>
<!-- Node2 -->
<g id="node2" class="node">
<title>Node2</title>
<g id="a_node2"><a xlink:href="macro_8h.html" target="_top" xlink:title="Provides defines for using inside library. These macro shorten the code and make it easier to read.">
<polygon fill="white" stroke="black" points="0,-168.5 0,-187.5 56,-187.5 56,-168.5 0,-168.5"/>
<text text-anchor="middle" x="28" y="-175.5" font-family="Helvetica,sans-Serif" font-size="10.00">macro.h</text>
</a>
</g>
</g>
<!-- Node1&#45;&gt;Node2 -->
<g id="edge1" class="edge">
<title>Node1&#45;&gt;Node2</title>
<path fill="none" stroke="midnightblue" d="M129.78,-220.64C105.01,-210.5 70.6,-196.43 48.82,-187.52"/>
<polygon fill="midnightblue" stroke="midnightblue" points="128.5,-223.9 139.08,-224.44 131.15,-217.42 128.5,-223.9"/>
</g>
<!-- Node3 -->
<g id="node3" class="node">
<title>Node3</title>
<g id="a_node3"><a xlink:href="packet_8h.html" target="_top" xlink:title="Contains functions for working with packets that GUDP library instances (Server and Client) send and ...">
<polygon fill="white" stroke="black" points="74,-168.5 74,-187.5 132,-187.5 132,-168.5 74,-168.5"/>
<text text-anchor="middle" x="103" y="-175.5" font-family="Helvetica,sans-Serif" font-size="10.00">packet.h</text>
</a>
</g>
</g>
<!-- Node1&#45;&gt;Node3 -->
<g id="edge2" class="edge">
<title>Node1&#45;&gt;Node3</title>
<path fill="none" stroke="midnightblue" d="M143.38,-217.25C133.27,-207.67 120.72,-195.79 112.32,-187.83"/>
<polygon fill="midnightblue" stroke="midnightblue" points="141.18,-219.99 150.84,-224.32 145.99,-214.91 141.18,-219.99"/>
</g>
<!-- Node5 -->
<g id="node5" class="node">
<title>Node5</title>
<g id="a_node5"><a xlink:href="socket_8h.html" target="_top" xlink:title="Provides structures and functions for convenient, platform&#45;independent socket creation,...">
<polygon fill="white" stroke="black" points="122.5,-112.5 122.5,-131.5 179.5,-131.5 179.5,-112.5 122.5,-112.5"/>
<text text-anchor="middle" x="151" y="-119.5" font-family="Helvetica,sans-Serif" font-size="10.00">socket.h</text>
</a>
</g>
</g>
<!-- Node1&#45;&gt;Node5 -->
<g id="edge9" class="edge">
<title>Node1&#45;&gt;Node5</title>
<path fill="none" stroke="midnightblue" d="M158.47,-214.35C156.5,-190.25 153.15,-149.31 151.7,-131.59"/>
<polygon fill="midnightblue" stroke="midnightblue" points="154.99,-214.69 159.29,-224.37 161.97,-214.12 154.99,-214.69"/>
</g>
<!-- Node6 -->
<g id="node6" class="node">
<title>Node6</title>
<g id="a_node6"><a xlink:href="registrator_8h.html" target="_top" xlink:title="Contains structures and interface for server registrator. It&#39;s the data structure that link the Addre...">
<polygon fill="white" stroke="black" points="149,-56.5 149,-75.5 225,-75.5 225,-56.5 149,-56.5"/>
<text text-anchor="middle" x="187" y="-63.5" font-family="Helvetica,sans-Serif" font-size="10.00">registrator.h</text>
</a>
</g>
</g>
<!-- Node1&#45;&gt;Node6 -->
<g id="edge10" class="edge">
<title>Node1&#45;&gt;Node6</title>
<path fill="none" stroke="midnightblue" d="M166.97,-214.61C174.14,-194.62 184.84,-161.57 189,-132 190.24,-123.2 189.2,-120.89 189,-112 188.72,-99.33 187.99,-84.68 187.5,-75.62"/>
<polygon fill="midnightblue" stroke="midnightblue" points="163.59,-213.67 163.41,-224.26 170.15,-216.09 163.59,-213.67"/>
</g>
<!-- Node7 -->
<g id="node7" class="node">
<title>Node7</title>
<g id="a_node7"><a xlink:href="server_8h.html" target="_top" xlink:title="Contains structure and interface for server interaction.">
<polygon fill="white" stroke="black" points="159,-0.5 159,-19.5 215,-19.5 215,-0.5 159,-0.5"/>
<text text-anchor="middle" x="187" y="-7.5" font-family="Helvetica,sans-Serif" font-size="10.00">server.h</text>
</a>
</g>
</g>
<!-- Node1&#45;&gt;Node7 -->
<g id="edge11" class="edge">
<title>Node1&#45;&gt;Node7</title>
<path fill="none" stroke="midnightblue" d="M174.05,-216.24C180.42,-208.08 187.69,-197.91 193,-188 218.03,-141.27 224.75,-128.19 234,-76 235.55,-67.25 237.49,-64.17 234,-56 227.35,-40.42 212.35,-27.65 201.08,-19.74"/>
<polygon fill="midnightblue" stroke="midnightblue" points="171.18,-214.22 167.63,-224.2 176.63,-218.61 171.18,-214.22"/>
</g>
<!-- Node4 -->
<g id="node4" class="node">
<title>Node4</title>
<g id="a_node4"><a xlink:href="client_8h.html" target="_top" xlink:title="Contains structure and interface for client interaction.">
<polygon fill="white" stroke="black" points="77.5,-56.5 77.5,-75.5 130.5,-75.5 130.5,-56.5 77.5,-56.5"/>
<text text-anchor="middle" x="104" y="-63.5" font-family="Helvetica,sans-Serif" font-size="10.00">client.h</text>
</a>
</g>
</g>
<!-- Node3&#45;&gt;Node4 -->
<g id="edge3" class="edge">
<title>Node3&#45;&gt;Node4</title>
<path fill="none" stroke="midnightblue" d="M103.17,-158.35C103.39,-134.25 103.76,-93.31 103.92,-75.59"/>
<polygon fill="midnightblue" stroke="midnightblue" points="99.67,-158.34 103.08,-168.37 106.67,-158.4 99.67,-158.34"/>
</g>
<!-- Node3&#45;&gt;Node5 -->
<g id="edge4" class="edge">
<title>Node3&#45;&gt;Node5</title>
<path fill="none" stroke="midnightblue" d="M117.73,-160.43C126.14,-150.97 136.35,-139.48 143.22,-131.75"/>
<polygon fill="midnightblue" stroke="midnightblue" points="114.95,-158.28 110.93,-168.08 120.19,-162.93 114.95,-158.28"/>
</g>
<!-- Node3&#45;&gt;Node7 -->
<g id="edge8" class="edge">
<title>Node3&#45;&gt;Node7</title>
<path fill="none" stroke="midnightblue" d="M89.89,-160.23C72.25,-135.46 45.52,-88.53 68,-56 88.34,-26.56 130.59,-16.36 158.88,-12.84"/>
<polygon fill="midnightblue" stroke="midnightblue" points="87.1,-162.34 95.88,-168.28 92.72,-158.17 87.1,-162.34"/>
</g>
<!-- Node5&#45;&gt;Node4 -->
<g id="edge5" class="edge">
<title>Node5&#45;&gt;Node4</title>
<path fill="none" stroke="midnightblue" d="M136.58,-104.43C128.34,-94.97 118.35,-83.48 111.62,-75.75"/>
<polygon fill="midnightblue" stroke="midnightblue" points="134.03,-106.84 143.24,-112.08 139.31,-102.24 134.03,-106.84"/>
</g>
<!-- Node5&#45;&gt;Node6 -->
<g id="edge6" class="edge">
<title>Node5&#45;&gt;Node6</title>
<path fill="none" stroke="midnightblue" d="M162.62,-103.57C168.82,-94.27 176.17,-83.25 181.17,-75.75"/>
<polygon fill="midnightblue" stroke="midnightblue" points="159.58,-101.82 156.94,-112.08 165.4,-105.7 159.58,-101.82"/>
</g>
<!-- Node6&#45;&gt;Node7 -->
<g id="edge7" class="edge">
<title>Node6&#45;&gt;Node7</title>
<path fill="none" stroke="midnightblue" d="M187,-45.8C187,-36.91 187,-26.78 187,-19.75"/>
<polygon fill="midnightblue" stroke="midnightblue" points="183.5,-46.08 187,-56.08 190.5,-46.08 183.5,-46.08"/>
</g>
</g>
</svg>
