<?xml version="1.0" encoding="UTF-8" standalone="no"?>
<!DOCTYPE svg PUBLIC "-//W3C//DTD SVG 1.1//EN"
 "http://www.w3.org/Graphics/SVG/1.1/DTD/svg11.dtd">
<!-- Generated by graphviz version 2.42.3 (0)
 -->
<!-- Title: server_struct.h Pages: 1 -->
<svg width="304pt" height="196pt"
 viewBox="0.00 0.00 303.50 196.00" xmlns="http://www.w3.org/2000/svg" xmlns:xlink="http://www.w3.org/1999/xlink">
<g id="graph0" class="graph" transform="scale(1 1) rotate(0) translate(4 192)">
<title>server_struct.h</title>
<polygon fill="white" stroke="transparent" points="-4,4 -4,-192 299.5,-192 299.5,4 -4,4"/>
<!-- Node1 -->
<g id="node1" class="node">
<title>Node1</title>
<g id="a_node1"><a xlink:title=" ">
<polygon fill="#bfbfbf" stroke="black" points="200.5,-168.5 200.5,-187.5 289.5,-187.5 289.5,-168.5 200.5,-168.5"/>
<text text-anchor="middle" x="245" y="-175.5" font-family="Helvetica,sans-Serif" font-size="10.00">server_struct.h</text>
</a>
</g>
</g>
<!-- Node2 -->
<g id="node2" class="node">
<title>Node2</title>
<g id="a_node2"><a xlink:title=" ">
<polygon fill="white" stroke="#bfbfbf" points="242.5,-0.5 242.5,-19.5 295.5,-19.5 295.5,-0.5 242.5,-0.5"/>
<text text-anchor="middle" x="269" y="-7.5" font-family="Helvetica,sans-Serif" font-size="10.00">stdint.h</text>
</a>
</g>
</g>
<!-- Node1&#45;&gt;Node2 -->
<g id="edge1" class="edge">
<title>Node1&#45;&gt;Node2</title>
<path fill="none" stroke="midnightblue" d="M247.74,-168.47C253.13,-151.24 264.91,-110.91 269,-76 270.81,-60.57 270.67,-42.94 270.16,-29.93"/>
<polygon fill="midnightblue" stroke="midnightblue" points="273.65,-29.68 269.65,-19.87 266.66,-30.03 273.65,-29.68"/>
</g>
<!-- Node3 -->
<g id="node3" class="node">
<title>Node3</title>
<g id="a_node3"><a xlink:href="socket_8h.html" target="_top" xlink:title="Provides structures and functions for convenient, platform&#45;independent socket creation,...">
<polygon fill="white" stroke="black" points="125.5,-112.5 125.5,-131.5 240.5,-131.5 240.5,-112.5 125.5,-112.5"/>
<text text-anchor="middle" x="183" y="-119.5" font-family="Helvetica,sans-Serif" font-size="10.00">networking/socket.h</text>
</a>
</g>
</g>
<!-- Node1&#45;&gt;Node3 -->
<g id="edge2" class="edge">
<title>Node1&#45;&gt;Node3</title>
<path fill="none" stroke="midnightblue" d="M235.04,-168.32C225.87,-160.34 212.06,-148.31 200.97,-138.65"/>
<polygon fill="midnightblue" stroke="midnightblue" points="202.98,-135.76 193.14,-131.83 198.38,-141.04 202.98,-135.76"/>
</g>
<!-- Node3&#45;&gt;Node2 -->
<g id="edge3" class="edge">
<title>Node3&#45;&gt;Node2</title>
<path fill="none" stroke="midnightblue" d="M202.79,-112.36C217.82,-104.82 237.92,-92.51 250,-76 259.87,-62.51 264.64,-43.95 266.93,-30.12"/>
<polygon fill="midnightblue" stroke="midnightblue" points="270.45,-30.21 268.32,-19.83 263.51,-29.26 270.45,-30.21"/>
</g>
<!-- Node4 -->
<g id="node4" class="node">
<title>Node4</title>
<g id="a_node4"><a xlink:title=" ">
<polygon fill="white" stroke="#bfbfbf" points="53.5,-56.5 53.5,-75.5 106.5,-75.5 106.5,-56.5 53.5,-56.5"/>
<text text-anchor="middle" x="80" y="-63.5" font-family="Helvetica,sans-Serif" font-size="10.00">string.h</text>
</a>
</g>
</g>
<!-- Node3&#45;&gt;Node4 -->
<g id="edge4" class="edge">
<title>Node3&#45;&gt;Node4</title>
<path fill="none" stroke="midnightblue" d="M166.45,-112.32C150.01,-103.7 124.57,-90.36 105.53,-80.39"/>
<polygon fill="midnightblue" stroke="midnightblue" points="106.99,-77.2 96.51,-75.65 103.74,-83.4 106.99,-77.2"/>
</g>
<!-- Node5 -->
<g id="node5" class="node">
<title>Node5</title>
<g id="a_node5"><a xlink:href="retcode_8h.html" target="_top" xlink:title="Contains enum with GUDP return codes.">
<polygon fill="white" stroke="black" points="0,-0.5 0,-19.5 108,-19.5 108,-0.5 0,-0.5"/>
<text text-anchor="middle" x="54" y="-7.5" font-family="Helvetica,sans-Serif" font-size="10.00">common/retcode.h</text>
</a>
</g>
</g>
<!-- Node3&#45;&gt;Node5 -->
<g id="edge5" class="edge">
<title>Node3&#45;&gt;Node5</title>
<path fill="none" stroke="midnightblue" d="M125.35,-117.79C95.96,-112.88 62.58,-101.54 44,-76 34.06,-62.33 38.96,-42.73 44.86,-28.63"/>
<polygon fill="midnightblue" stroke="midnightblue" points="48.07,-30.04 49.14,-19.5 41.73,-27.07 48.07,-30.04"/>
</g>
<!-- Node6 -->
<g id="node6" class="node">
<title>Node6</title>
<g id="a_node6"><a xlink:href="packet_8h.html" target="_top" xlink:title="Contains functions for working with packets that GUDP library instances (Server and Client) send and ...">
<polygon fill="white" stroke="black" points="125,-56.5 125,-75.5 241,-75.5 241,-56.5 125,-56.5"/>
<text text-anchor="middle" x="183" y="-63.5" font-family="Helvetica,sans-Serif" font-size="10.00">networking/packet.h</text>
</a>
</g>
</g>
<!-- Node3&#45;&gt;Node6 -->
<g id="edge6" class="edge">
<title>Node3&#45;&gt;Node6</title>
<path fill="none" stroke="midnightblue" d="M183,-112.08C183,-105.01 183,-94.86 183,-85.99"/>
<polygon fill="midnightblue" stroke="midnightblue" points="186.5,-85.75 183,-75.75 179.5,-85.75 186.5,-85.75"/>
</g>
<!-- Node6&#45;&gt;Node2 -->
<g id="edge8" class="edge">
<title>Node6&#45;&gt;Node2</title>
<path fill="none" stroke="midnightblue" d="M196.82,-56.32C210.23,-47.9 230.82,-34.97 246.59,-25.07"/>
<polygon fill="midnightblue" stroke="midnightblue" points="248.61,-27.94 255.22,-19.65 244.89,-22.01 248.61,-27.94"/>
</g>
<!-- Node6&#45;&gt;Node5 -->
<g id="edge9" class="edge">
<title>Node6&#45;&gt;Node5</title>
<path fill="none" stroke="midnightblue" d="M162.56,-56.44C141.33,-47.56 107.9,-33.56 83.75,-23.45"/>
<polygon fill="midnightblue" stroke="midnightblue" points="84.92,-20.15 74.34,-19.52 82.22,-26.61 84.92,-20.15"/>
</g>
<!-- Node7 -->
<g id="node7" class="node">
<title>Node7</title>
<g id="a_node7"><a xlink:title=" ">
<polygon fill="white" stroke="#bfbfbf" points="155,-0.5 155,-19.5 211,-19.5 211,-0.5 155,-0.5"/>
<text text-anchor="middle" x="183" y="-7.5" font-family="Helvetica,sans-Serif" font-size="10.00">stddef.h</text>
</a>
</g>
</g>
<!-- Node6&#45;&gt;Node7 -->
<g id="edge7" class="edge">
<title>Node6&#45;&gt;Node7</title>
<path fill="none" stroke="midnightblue" d="M183,-56.08C183,-49.01 183,-38.86 183,-29.99"/>
<polygon fill="midnightblue" stroke="midnightblue" points="186.5,-29.75 183,-19.75 179.5,-29.75 186.5,-29.75"/>
</g>
</g>
</svg>
