<?xml version="1.0" encoding="UTF-8" standalone="no"?>
<!DOCTYPE svg PUBLIC "-//W3C//DTD SVG 1.1//EN"
 "http://www.w3.org/Graphics/SVG/1.1/DTD/svg11.dtd">
<!-- Generated by graphviz version 2.42.3 (0)
 -->
<!-- Title: server.h Pages: 1 -->
<svg width="335pt" height="252pt"
 viewBox="0.00 0.00 335.00 252.00" xmlns="http://www.w3.org/2000/svg" xmlns:xlink="http://www.w3.org/1999/xlink">
<g id="graph0" class="graph" transform="scale(1 1) rotate(0) translate(4 248)">
<title>server.h</title>
<polygon fill="white" stroke="transparent" points="-4,4 -4,-248 331,-248 331,4 -4,4"/>
<!-- Node1 -->
<g id="node1" class="node">
<title>Node1</title>
<g id="a_node1"><a xlink:title="Contains structure and interface for server interaction.">
<polygon fill="#bfbfbf" stroke="black" points="72,-224.5 72,-243.5 128,-243.5 128,-224.5 72,-224.5"/>
<text text-anchor="middle" x="100" y="-231.5" font-family="Helvetica,sans-Serif" font-size="10.00">server.h</text>
</a>
</g>
</g>
<!-- Node2 -->
<g id="node2" class="node">
<title>Node2</title>
<g id="a_node2"><a xlink:href="retcode_8h.html" target="_top" xlink:title="Contains enum with GUDP return codes.">
<polygon fill="white" stroke="black" points="0,-0.5 0,-19.5 108,-19.5 108,-0.5 0,-0.5"/>
<text text-anchor="middle" x="54" y="-7.5" font-family="Helvetica,sans-Serif" font-size="10.00">common/retcode.h</text>
</a>
</g>
</g>
<!-- Node1&#45;&gt;Node2 -->
<g id="edge1" class="edge">
<title>Node1&#45;&gt;Node2</title>
<path fill="none" stroke="midnightblue" d="M78.52,-224.36C63.61,-217.09 44.89,-205.12 36,-188 8.77,-135.56 32.29,-62.66 45.91,-29.16"/>
<polygon fill="midnightblue" stroke="midnightblue" points="49.22,-30.31 49.91,-19.74 42.78,-27.57 49.22,-30.31"/>
</g>
<!-- Node3 -->
<g id="node3" class="node">
<title>Node3</title>
<g id="a_node3"><a xlink:href="packet_8h.html" target="_top" xlink:title="Contains functions for working with packets that GUDP library instances (Server and Client) send and ...">
<polygon fill="white" stroke="black" points="211,-56.5 211,-75.5 327,-75.5 327,-56.5 211,-56.5"/>
<text text-anchor="middle" x="269" y="-63.5" font-family="Helvetica,sans-Serif" font-size="10.00">networking/packet.h</text>
</a>
</g>
</g>
<!-- Node1&#45;&gt;Node3 -->
<g id="edge2" class="edge">
<title>Node1&#45;&gt;Node3</title>
<path fill="none" stroke="midnightblue" d="M114.21,-224.43C127.69,-215.98 148.17,-202.29 164,-188 201.16,-154.45 237.97,-108.26 256.56,-83.79"/>
<polygon fill="midnightblue" stroke="midnightblue" points="259.54,-85.64 262.75,-75.55 253.95,-81.44 259.54,-85.64"/>
</g>
<!-- Node6 -->
<g id="node6" class="node">
<title>Node6</title>
<g id="a_node6"><a xlink:href="registrator_8h.html" target="_top" xlink:title="Contains structures and interface for server registrator. It&#39;s the data structure that link the Addre...">
<polygon fill="white" stroke="black" points="45,-168.5 45,-187.5 155,-187.5 155,-168.5 45,-168.5"/>
<text text-anchor="middle" x="100" y="-175.5" font-family="Helvetica,sans-Serif" font-size="10.00">server/registrator.h</text>
</a>
</g>
</g>
<!-- Node1&#45;&gt;Node6 -->
<g id="edge6" class="edge">
<title>Node1&#45;&gt;Node6</title>
<path fill="none" stroke="midnightblue" d="M100,-224.08C100,-217.01 100,-206.86 100,-197.99"/>
<polygon fill="midnightblue" stroke="midnightblue" points="103.5,-197.75 100,-187.75 96.5,-197.75 103.5,-197.75"/>
</g>
<!-- Node3&#45;&gt;Node2 -->
<g id="edge5" class="edge">
<title>Node3&#45;&gt;Node2</title>
<path fill="none" stroke="midnightblue" d="M234.93,-56.44C197.82,-47.12 138.34,-32.18 97.79,-22"/>
<polygon fill="midnightblue" stroke="midnightblue" points="98.46,-18.56 87.91,-19.52 96.75,-25.35 98.46,-18.56"/>
</g>
<!-- Node4 -->
<g id="node4" class="node">
<title>Node4</title>
<g id="a_node4"><a xlink:title=" ">
<polygon fill="white" stroke="#bfbfbf" points="241,-0.5 241,-19.5 297,-19.5 297,-0.5 241,-0.5"/>
<text text-anchor="middle" x="269" y="-7.5" font-family="Helvetica,sans-Serif" font-size="10.00">stddef.h</text>
</a>
</g>
</g>
<!-- Node3&#45;&gt;Node4 -->
<g id="edge3" class="edge">
<title>Node3&#45;&gt;Node4</title>
<path fill="none" stroke="midnightblue" d="M269,-56.08C269,-49.01 269,-38.86 269,-29.99"/>
<polygon fill="midnightblue" stroke="midnightblue" points="272.5,-29.75 269,-19.75 265.5,-29.75 272.5,-29.75"/>
</g>
<!-- Node5 -->
<g id="node5" class="node">
<title>Node5</title>
<g id="a_node5"><a xlink:title=" ">
<polygon fill="white" stroke="#bfbfbf" points="148.5,-0.5 148.5,-19.5 201.5,-19.5 201.5,-0.5 148.5,-0.5"/>
<text text-anchor="middle" x="175" y="-7.5" font-family="Helvetica,sans-Serif" font-size="10.00">stdint.h</text>
</a>
</g>
</g>
<!-- Node3&#45;&gt;Node5 -->
<g id="edge4" class="edge">
<title>Node3&#45;&gt;Node5</title>
<path fill="none" stroke="midnightblue" d="M253.9,-56.32C239.1,-47.82 216.31,-34.73 199.02,-24.8"/>
<polygon fill="midnightblue" stroke="midnightblue" points="200.48,-21.6 190.07,-19.65 196.99,-27.67 200.48,-21.6"/>
</g>
<!-- Node6&#45;&gt;Node2 -->
<g id="edge7" class="edge">
<title>Node6&#45;&gt;Node2</title>
<path fill="none" stroke="midnightblue" d="M86.21,-168.19C75.17,-160.24 60.5,-147.45 54,-132 39.8,-98.23 44.94,-54.32 49.67,-29.76"/>
<polygon fill="midnightblue" stroke="midnightblue" points="53.16,-30.17 51.8,-19.66 46.31,-28.72 53.16,-30.17"/>
</g>
<!-- Node7 -->
<g id="node7" class="node">
<title>Node7</title>
<g id="a_node7"><a xlink:href="socket_8h.html" target="_top" xlink:title="Provides structures and functions for convenient, platform&#45;independent socket creation,...">
<polygon fill="white" stroke="black" points="63.5,-112.5 63.5,-131.5 178.5,-131.5 178.5,-112.5 63.5,-112.5"/>
<text text-anchor="middle" x="121" y="-119.5" font-family="Helvetica,sans-Serif" font-size="10.00">networking/socket.h</text>
</a>
</g>
</g>
<!-- Node6&#45;&gt;Node7 -->
<g id="edge8" class="edge">
<title>Node6&#45;&gt;Node7</title>
<path fill="none" stroke="midnightblue" d="M103.47,-168.08C106.31,-160.77 110.43,-150.18 113.96,-141.1"/>
<polygon fill="midnightblue" stroke="midnightblue" points="117.23,-142.34 117.6,-131.75 110.71,-139.8 117.23,-142.34"/>
</g>
<!-- Node7&#45;&gt;Node2 -->
<g id="edge11" class="edge">
<title>Node7&#45;&gt;Node2</title>
<path fill="none" stroke="midnightblue" d="M115.74,-112.37C104.73,-94.3 79.08,-52.18 64.54,-28.31"/>
<polygon fill="midnightblue" stroke="midnightblue" points="67.42,-26.31 59.23,-19.59 61.45,-29.95 67.42,-26.31"/>
</g>
<!-- Node7&#45;&gt;Node3 -->
<g id="edge12" class="edge">
<title>Node7&#45;&gt;Node3</title>
<path fill="none" stroke="midnightblue" d="M144.45,-112.44C169.13,-103.44 208.19,-89.19 235.98,-79.05"/>
<polygon fill="midnightblue" stroke="midnightblue" points="237.46,-82.23 245.66,-75.52 235.06,-75.66 237.46,-82.23"/>
</g>
<!-- Node7&#45;&gt;Node5 -->
<g id="edge9" class="edge">
<title>Node7&#45;&gt;Node5</title>
<path fill="none" stroke="midnightblue" d="M120.49,-112.07C120.13,-99.04 120.87,-74.36 130,-56 135.73,-44.49 145.54,-34.14 154.55,-26.28"/>
<polygon fill="midnightblue" stroke="midnightblue" points="156.94,-28.85 162.46,-19.8 152.5,-23.44 156.94,-28.85"/>
</g>
<!-- Node8 -->
<g id="node8" class="node">
<title>Node8</title>
<g id="a_node8"><a xlink:title=" ">
<polygon fill="white" stroke="#bfbfbf" points="139.5,-56.5 139.5,-75.5 192.5,-75.5 192.5,-56.5 139.5,-56.5"/>
<text text-anchor="middle" x="166" y="-63.5" font-family="Helvetica,sans-Serif" font-size="10.00">string.h</text>
</a>
</g>
</g>
<!-- Node7&#45;&gt;Node8 -->
<g id="edge10" class="edge">
<title>Node7&#45;&gt;Node8</title>
<path fill="none" stroke="midnightblue" d="M128.43,-112.08C134.85,-104.38 144.31,-93.03 152.12,-83.65"/>
<polygon fill="midnightblue" stroke="midnightblue" points="154.99,-85.67 158.71,-75.75 149.62,-81.19 154.99,-85.67"/>
</g>
</g>
</svg>
