<?xml version="1.0" encoding="UTF-8" standalone="no"?>
<!DOCTYPE svg PUBLIC "-//W3C//DTD SVG 1.1//EN"
 "http://www.w3.org/Graphics/SVG/1.1/DTD/svg11.dtd">
<!-- Generated by graphviz version 2.42.3 (0)
 -->
<!-- Title: server_registrator.h Pages: 1 -->
<svg width="308pt" height="252pt"
 viewBox="0.00 0.00 308.42 252.00" xmlns="http://www.w3.org/2000/svg" xmlns:xlink="http://www.w3.org/1999/xlink">
<g id="graph0" class="graph" transform="scale(1 1) rotate(0) translate(4 248)">
<title>server_registrator.h</title>
<polygon fill="white" stroke="transparent" points="-4,4 -4,-248 304.42,-248 304.42,4 -4,4"/>
<!-- Node1 -->
<g id="node1" class="node">
<title>Node1</title>
<g id="a_node1"><a xlink:title=" ">
<polygon fill="#bfbfbf" stroke="black" points="9.92,-224.5 9.92,-243.5 121.92,-243.5 121.92,-224.5 9.92,-224.5"/>
<text text-anchor="middle" x="65.92" y="-231.5" font-family="Helvetica,sans-Serif" font-size="10.00">server_registrator.h</text>
</a>
</g>
</g>
<!-- Node2 -->
<g id="node2" class="node">
<title>Node2</title>
<g id="a_node2"><a xlink:href="retcode_8h.html" target="_top" xlink:title="Contains enum with GUDP return codes.">
<polygon fill="white" stroke="black" points="39.92,-0.5 39.92,-19.5 147.92,-19.5 147.92,-0.5 39.92,-0.5"/>
<text text-anchor="middle" x="93.92" y="-7.5" font-family="Helvetica,sans-Serif" font-size="10.00">common/retcode.h</text>
</a>
</g>
</g>
<!-- Node1&#45;&gt;Node2 -->
<g id="edge1" class="edge">
<title>Node1&#45;&gt;Node2</title>
<path fill="none" stroke="midnightblue" d="M58.51,-224.31C36.64,-197.53 -23.98,-114.62 10.92,-56 20.02,-40.72 36.31,-30.31 52.06,-23.39"/>
<polygon fill="midnightblue" stroke="midnightblue" points="53.75,-26.48 61.74,-19.51 51.15,-19.98 53.75,-26.48"/>
</g>
<!-- Node3 -->
<g id="node3" class="node">
<title>Node3</title>
<g id="a_node3"><a xlink:href="socket_8h.html" target="_top" xlink:title="Provides structures and functions for convenient, platform&#45;independent socket creation,...">
<polygon fill="white" stroke="black" points="71.42,-112.5 71.42,-131.5 186.42,-131.5 186.42,-112.5 71.42,-112.5"/>
<text text-anchor="middle" x="128.92" y="-119.5" font-family="Helvetica,sans-Serif" font-size="10.00">networking/socket.h</text>
</a>
</g>
</g>
<!-- Node1&#45;&gt;Node3 -->
<g id="edge2" class="edge">
<title>Node1&#45;&gt;Node3</title>
<path fill="none" stroke="midnightblue" d="M67.06,-224.48C69.07,-211.53 74.12,-186.47 84.92,-168 91.42,-156.88 101.27,-146.46 110,-138.45"/>
<polygon fill="midnightblue" stroke="midnightblue" points="112.36,-141.04 117.58,-131.82 107.75,-135.77 112.36,-141.04"/>
</g>
<!-- Node8 -->
<g id="node8" class="node">
<title>Node8</title>
<g id="a_node8"><a xlink:href="server__struct_8h.html" target="_top" xlink:title=" ">
<polygon fill="white" stroke="black" points="94.42,-168.5 94.42,-187.5 217.42,-187.5 217.42,-168.5 94.42,-168.5"/>
<text text-anchor="middle" x="155.92" y="-175.5" font-family="Helvetica,sans-Serif" font-size="10.00">server/server_struct.h</text>
</a>
</g>
</g>
<!-- Node1&#45;&gt;Node8 -->
<g id="edge10" class="edge">
<title>Node1&#45;&gt;Node8</title>
<path fill="none" stroke="midnightblue" d="M80.38,-224.32C94.42,-215.9 115.97,-202.97 132.46,-193.07"/>
<polygon fill="midnightblue" stroke="midnightblue" points="134.72,-195.8 141.5,-187.65 131.12,-189.8 134.72,-195.8"/>
</g>
<!-- Node3&#45;&gt;Node2 -->
<g id="edge5" class="edge">
<title>Node3&#45;&gt;Node2</title>
<path fill="none" stroke="midnightblue" d="M126.17,-112.37C120.5,-94.54 107.38,-53.3 99.73,-29.27"/>
<polygon fill="midnightblue" stroke="midnightblue" points="103.02,-28.06 96.65,-19.59 96.35,-30.18 103.02,-28.06"/>
</g>
<!-- Node4 -->
<g id="node4" class="node">
<title>Node4</title>
<g id="a_node4"><a xlink:title=" ">
<polygon fill="white" stroke="#bfbfbf" points="247.42,-0.5 247.42,-19.5 300.42,-19.5 300.42,-0.5 247.42,-0.5"/>
<text text-anchor="middle" x="273.92" y="-7.5" font-family="Helvetica,sans-Serif" font-size="10.00">stdint.h</text>
</a>
</g>
</g>
<!-- Node3&#45;&gt;Node4 -->
<g id="edge3" class="edge">
<title>Node3&#45;&gt;Node4</title>
<path fill="none" stroke="midnightblue" d="M186.09,-112.44C210.25,-106.1 236.91,-95.1 254.92,-76 266.63,-63.58 271.17,-44.34 272.9,-30.01"/>
<polygon fill="midnightblue" stroke="midnightblue" points="276.41,-30.06 273.78,-19.8 269.44,-29.46 276.41,-30.06"/>
</g>
<!-- Node5 -->
<g id="node5" class="node">
<title>Node5</title>
<g id="a_node5"><a xlink:title=" ">
<polygon fill="white" stroke="#bfbfbf" points="20.42,-56.5 20.42,-75.5 73.42,-75.5 73.42,-56.5 20.42,-56.5"/>
<text text-anchor="middle" x="46.92" y="-63.5" font-family="Helvetica,sans-Serif" font-size="10.00">string.h</text>
</a>
</g>
</g>
<!-- Node3&#45;&gt;Node5 -->
<g id="edge4" class="edge">
<title>Node3&#45;&gt;Node5</title>
<path fill="none" stroke="midnightblue" d="M115.75,-112.32C103.07,-103.98 83.69,-91.21 68.71,-81.35"/>
<polygon fill="midnightblue" stroke="midnightblue" points="70.34,-78.23 60.06,-75.65 66.49,-84.08 70.34,-78.23"/>
</g>
<!-- Node6 -->
<g id="node6" class="node">
<title>Node6</title>
<g id="a_node6"><a xlink:href="packet_8h.html" target="_top" xlink:title="Contains functions for working with packets that GUDP library instances (Server and Client) send and ...">
<polygon fill="white" stroke="black" points="129.92,-56.5 129.92,-75.5 245.92,-75.5 245.92,-56.5 129.92,-56.5"/>
<text text-anchor="middle" x="187.92" y="-63.5" font-family="Helvetica,sans-Serif" font-size="10.00">networking/packet.h</text>
</a>
</g>
</g>
<!-- Node3&#45;&gt;Node6 -->
<g id="edge6" class="edge">
<title>Node3&#45;&gt;Node6</title>
<path fill="none" stroke="midnightblue" d="M138.4,-112.32C147.12,-104.34 160.26,-92.31 170.82,-82.65"/>
<polygon fill="midnightblue" stroke="midnightblue" points="173.25,-85.17 178.27,-75.83 168.53,-80 173.25,-85.17"/>
</g>
<!-- Node6&#45;&gt;Node2 -->
<g id="edge9" class="edge">
<title>Node6&#45;&gt;Node2</title>
<path fill="none" stroke="midnightblue" d="M172.82,-56.32C158.02,-47.82 135.23,-34.73 117.94,-24.8"/>
<polygon fill="midnightblue" stroke="midnightblue" points="119.4,-21.6 108.99,-19.65 115.91,-27.67 119.4,-21.6"/>
</g>
<!-- Node6&#45;&gt;Node4 -->
<g id="edge8" class="edge">
<title>Node6&#45;&gt;Node4</title>
<path fill="none" stroke="midnightblue" d="M201.74,-56.32C215.15,-47.9 235.74,-34.97 251.51,-25.07"/>
<polygon fill="midnightblue" stroke="midnightblue" points="253.53,-27.94 260.14,-19.65 249.81,-22.01 253.53,-27.94"/>
</g>
<!-- Node7 -->
<g id="node7" class="node">
<title>Node7</title>
<g id="a_node7"><a xlink:title=" ">
<polygon fill="white" stroke="#bfbfbf" points="165.92,-0.5 165.92,-19.5 221.92,-19.5 221.92,-0.5 165.92,-0.5"/>
<text text-anchor="middle" x="193.92" y="-7.5" font-family="Helvetica,sans-Serif" font-size="10.00">stddef.h</text>
</a>
</g>
</g>
<!-- Node6&#45;&gt;Node7 -->
<g id="edge7" class="edge">
<title>Node6&#45;&gt;Node7</title>
<path fill="none" stroke="midnightblue" d="M188.91,-56.08C189.71,-48.93 190.85,-38.64 191.84,-29.69"/>
<polygon fill="midnightblue" stroke="midnightblue" points="195.32,-30.08 192.95,-19.75 188.36,-29.3 195.32,-30.08"/>
</g>
<!-- Node8&#45;&gt;Node3 -->
<g id="edge12" class="edge">
<title>Node8&#45;&gt;Node3</title>
<path fill="none" stroke="midnightblue" d="M151.46,-168.08C147.77,-160.69 142.4,-149.95 137.83,-140.81"/>
<polygon fill="midnightblue" stroke="midnightblue" points="140.9,-139.13 133.3,-131.75 134.64,-142.26 140.9,-139.13"/>
</g>
<!-- Node8&#45;&gt;Node4 -->
<g id="edge11" class="edge">
<title>Node8&#45;&gt;Node4</title>
<path fill="none" stroke="midnightblue" d="M173.3,-168.46C200.73,-153.88 253.06,-121.32 273.92,-76 280.56,-61.58 279.9,-43.39 277.96,-29.92"/>
<polygon fill="midnightblue" stroke="midnightblue" points="281.38,-29.13 276.17,-19.91 274.49,-30.37 281.38,-29.13"/>
</g>
</g>
</svg>
