<?xml version="1.0" encoding="UTF-8" standalone="no"?>
<!DOCTYPE svg PUBLIC "-//W3C//DTD SVG 1.1//EN"
 "http://www.w3.org/Graphics/SVG/1.1/DTD/svg11.dtd">
<!-- Generated by graphviz version 2.42.3 (0)
 -->
<!-- Title: server_struct.h Pages: 1 -->
<svg width="151pt" height="140pt"
 viewBox="0.00 0.00 150.50 140.00" xmlns="http://www.w3.org/2000/svg" xmlns:xlink="http://www.w3.org/1999/xlink">
<g id="graph0" class="graph" transform="scale(1 1) rotate(0) translate(4 136)">
<title>server_struct.h</title>
<polygon fill="white" stroke="transparent" points="-4,4 -4,-136 146.5,-136 146.5,4 -4,4"/>
<!-- Node1 -->
<g id="node1" class="node">
<title>Node1</title>
<g id="a_node1"><a xlink:title=" ">
<polygon fill="#bfbfbf" stroke="black" points="0,-112.5 0,-131.5 89,-131.5 89,-112.5 0,-112.5"/>
<text text-anchor="middle" x="44.5" y="-119.5" font-family="Helvetica,sans-Serif" font-size="10.00">server_struct.h</text>
</a>
</g>
</g>
<!-- Node2 -->
<g id="node2" class="node">
<title>Node2</title>
<g id="a_node2"><a xlink:href="server_8h.html" target="_top" xlink:title=" ">
<polygon fill="white" stroke="black" points="16.5,-0.5 16.5,-19.5 72.5,-19.5 72.5,-0.5 16.5,-0.5"/>
<text text-anchor="middle" x="44.5" y="-7.5" font-family="Helvetica,sans-Serif" font-size="10.00">server.h</text>
</a>
</g>
</g>
<!-- Node1&#45;&gt;Node2 -->
<g id="edge1" class="edge">
<title>Node1&#45;&gt;Node2</title>
<path fill="none" stroke="midnightblue" d="M32.49,-103.6C25.02,-90.68 17.53,-72.51 21.5,-56 24.74,-42.52 32.75,-28.54 38.4,-19.81"/>
<polygon fill="midnightblue" stroke="midnightblue" points="29.71,-105.76 38.01,-112.34 35.63,-102.02 29.71,-105.76"/>
</g>
<!-- Node3 -->
<g id="node3" class="node">
<title>Node3</title>
<g id="a_node3"><a xlink:href="server__registrator_8h.html" target="_top" xlink:title=" ">
<polygon fill="white" stroke="black" points="30.5,-56.5 30.5,-75.5 142.5,-75.5 142.5,-56.5 30.5,-56.5"/>
<text text-anchor="middle" x="86.5" y="-63.5" font-family="Helvetica,sans-Serif" font-size="10.00">server_registrator.h</text>
</a>
</g>
</g>
<!-- Node1&#45;&gt;Node3 -->
<g id="edge2" class="edge">
<title>Node1&#45;&gt;Node3</title>
<path fill="none" stroke="midnightblue" d="M57.61,-104.14C64.93,-94.74 73.74,-83.4 79.69,-75.75"/>
<polygon fill="midnightblue" stroke="midnightblue" points="54.81,-102.04 51.44,-112.08 60.34,-106.34 54.81,-102.04"/>
</g>
<!-- Node3&#45;&gt;Node2 -->
<g id="edge3" class="edge">
<title>Node3&#45;&gt;Node2</title>
<path fill="none" stroke="midnightblue" d="M73.39,-48.14C66.07,-38.74 57.26,-27.4 51.31,-19.75"/>
<polygon fill="midnightblue" stroke="midnightblue" points="70.66,-50.34 79.56,-56.08 76.19,-46.04 70.66,-50.34"/>
</g>
</g>
</svg>
