<?xml version="1.0" encoding="UTF-8" standalone="no"?>
<!DOCTYPE svg PUBLIC "-//W3C//DTD SVG 1.1//EN"
 "http://www.w3.org/Graphics/SVG/1.1/DTD/svg11.dtd">
<!-- Generated by graphviz version 2.42.3 (0)
 -->
<!-- Title: socket.h Pages: 1 -->
<svg width="297pt" height="140pt"
 viewBox="0.00 0.00 296.50 140.00" xmlns="http://www.w3.org/2000/svg" xmlns:xlink="http://www.w3.org/1999/xlink">
<g id="graph0" class="graph" transform="scale(1 1) rotate(0) translate(4 136)">
<title>socket.h</title>
<polygon fill="white" stroke="transparent" points="-4,4 -4,-136 292.5,-136 292.5,4 -4,4"/>
<!-- Node1 -->
<g id="node1" class="node">
<title>Node1</title>
<g id="a_node1"><a xlink:title="Provides structures and functions for convenient, platform&#45;independent socket creation,...">
<polygon fill="#bfbfbf" stroke="black" points="68,-112.5 68,-131.5 125,-131.5 125,-112.5 68,-112.5"/>
<text text-anchor="middle" x="96.5" y="-119.5" font-family="Helvetica,sans-Serif" font-size="10.00">socket.h</text>
</a>
</g>
</g>
<!-- Node2 -->
<g id="node2" class="node">
<title>Node2</title>
<g id="a_node2"><a xlink:title=" ">
<polygon fill="white" stroke="#bfbfbf" points="0,-0.5 0,-19.5 53,-19.5 53,-0.5 0,-0.5"/>
<text text-anchor="middle" x="26.5" y="-7.5" font-family="Helvetica,sans-Serif" font-size="10.00">stdint.h</text>
</a>
</g>
</g>
<!-- Node1&#45;&gt;Node2 -->
<g id="edge1" class="edge">
<title>Node1&#45;&gt;Node2</title>
<path fill="none" stroke="midnightblue" d="M67.58,-114.45C47.45,-108.22 22.05,-96.63 9.5,-76 0.62,-61.41 7.46,-42.24 14.95,-28.5"/>
<polygon fill="midnightblue" stroke="midnightblue" points="18.14,-29.98 20.29,-19.61 12.14,-26.38 18.14,-29.98"/>
</g>
<!-- Node3 -->
<g id="node3" class="node">
<title>Node3</title>
<g id="a_node3"><a xlink:title=" ">
<polygon fill="white" stroke="#bfbfbf" points="19,-56.5 19,-75.5 72,-75.5 72,-56.5 19,-56.5"/>
<text text-anchor="middle" x="45.5" y="-63.5" font-family="Helvetica,sans-Serif" font-size="10.00">string.h</text>
</a>
</g>
</g>
<!-- Node1&#45;&gt;Node3 -->
<g id="edge2" class="edge">
<title>Node1&#45;&gt;Node3</title>
<path fill="none" stroke="midnightblue" d="M88.08,-112.08C80.65,-104.22 69.65,-92.57 60.69,-83.08"/>
<polygon fill="midnightblue" stroke="midnightblue" points="63.18,-80.62 53.76,-75.75 58.09,-85.42 63.18,-80.62"/>
</g>
<!-- Node4 -->
<g id="node4" class="node">
<title>Node4</title>
<g id="a_node4"><a xlink:href="retcode_8h.html" target="_top" xlink:title="Contains enum with GUDP return codes.">
<polygon fill="white" stroke="black" points="180.5,-0.5 180.5,-19.5 288.5,-19.5 288.5,-0.5 180.5,-0.5"/>
<text text-anchor="middle" x="234.5" y="-7.5" font-family="Helvetica,sans-Serif" font-size="10.00">common/retcode.h</text>
</a>
</g>
</g>
<!-- Node1&#45;&gt;Node4 -->
<g id="edge3" class="edge">
<title>Node1&#45;&gt;Node4</title>
<path fill="none" stroke="midnightblue" d="M125.04,-117.52C152.02,-112.75 191.79,-101.61 215.5,-76 227.1,-63.47 231.65,-44.25 233.42,-29.95"/>
<polygon fill="midnightblue" stroke="midnightblue" points="236.93,-30.04 234.32,-19.77 229.95,-29.42 236.93,-30.04"/>
</g>
<!-- Node5 -->
<g id="node5" class="node">
<title>Node5</title>
<g id="a_node5"><a xlink:href="packet_8h.html" target="_top" xlink:title="Contains functions for working with packets that GUDP library instances (Server and Client) send and ...">
<polygon fill="white" stroke="black" points="90.5,-56.5 90.5,-75.5 206.5,-75.5 206.5,-56.5 90.5,-56.5"/>
<text text-anchor="middle" x="148.5" y="-63.5" font-family="Helvetica,sans-Serif" font-size="10.00">networking/packet.h</text>
</a>
</g>
</g>
<!-- Node1&#45;&gt;Node5 -->
<g id="edge4" class="edge">
<title>Node1&#45;&gt;Node5</title>
<path fill="none" stroke="midnightblue" d="M105.09,-112.08C112.66,-104.22 123.88,-92.57 133.01,-83.08"/>
<polygon fill="midnightblue" stroke="midnightblue" points="135.66,-85.38 140.07,-75.75 130.62,-80.53 135.66,-85.38"/>
</g>
<!-- Node5&#45;&gt;Node2 -->
<g id="edge6" class="edge">
<title>Node5&#45;&gt;Node2</title>
<path fill="none" stroke="midnightblue" d="M129.17,-56.44C109.18,-47.6 77.76,-33.69 54.94,-23.59"/>
<polygon fill="midnightblue" stroke="midnightblue" points="56.3,-20.36 45.74,-19.52 53.47,-26.76 56.3,-20.36"/>
</g>
<!-- Node5&#45;&gt;Node4 -->
<g id="edge7" class="edge">
<title>Node5&#45;&gt;Node4</title>
<path fill="none" stroke="midnightblue" d="M162.32,-56.32C175.73,-47.9 196.32,-34.97 212.09,-25.07"/>
<polygon fill="midnightblue" stroke="midnightblue" points="214.11,-27.94 220.72,-19.65 210.39,-22.01 214.11,-27.94"/>
</g>
<!-- Node6 -->
<g id="node6" class="node">
<title>Node6</title>
<g id="a_node6"><a xlink:title=" ">
<polygon fill="white" stroke="#bfbfbf" points="106.5,-0.5 106.5,-19.5 162.5,-19.5 162.5,-0.5 106.5,-0.5"/>
<text text-anchor="middle" x="134.5" y="-7.5" font-family="Helvetica,sans-Serif" font-size="10.00">stddef.h</text>
</a>
</g>
</g>
<!-- Node5&#45;&gt;Node6 -->
<g id="edge5" class="edge">
<title>Node5&#45;&gt;Node6</title>
<path fill="none" stroke="midnightblue" d="M146.19,-56.08C144.33,-48.93 141.66,-38.64 139.35,-29.69"/>
<polygon fill="midnightblue" stroke="midnightblue" points="142.67,-28.55 136.77,-19.75 135.89,-30.31 142.67,-28.55"/>
</g>
</g>
</svg>
