<?xml version="1.0" encoding="UTF-8" standalone="no"?>
<!DOCTYPE svg PUBLIC "-//W3C//DTD SVG 1.1//EN"
 "http://www.w3.org/Graphics/SVG/1.1/DTD/svg11.dtd">
<!-- Generated by graphviz version 2.42.3 (0)
 -->
<!-- Title: socket.h Pages: 1 -->
<svg width="156pt" height="140pt"
 viewBox="0.00 0.00 155.50 140.00" xmlns="http://www.w3.org/2000/svg" xmlns:xlink="http://www.w3.org/1999/xlink">
<g id="graph0" class="graph" transform="scale(1 1) rotate(0) translate(4 136)">
<title>socket.h</title>
<polygon fill="white" stroke="transparent" points="-4,4 -4,-136 151.5,-136 151.5,4 -4,4"/>
<!-- Node1 -->
<g id="node1" class="node">
<title>Node1</title>
<g id="a_node1"><a xlink:title="Provides structures and functions for convenient, platform&#45;independent socket creation,...">
<polygon fill="#bfbfbf" stroke="black" points="39,-112.5 39,-131.5 96,-131.5 96,-112.5 39,-112.5"/>
<text text-anchor="middle" x="67.5" y="-119.5" font-family="Helvetica,sans-Serif" font-size="10.00">socket.h</text>
</a>
</g>
</g>
<!-- Node2 -->
<g id="node2" class="node">
<title>Node2</title>
<g id="a_node2"><a xlink:href="client_8h.html" target="_top" xlink:title="Contains structure and interface for client interaction.">
<polygon fill="white" stroke="black" points="0,-56.5 0,-75.5 53,-75.5 53,-56.5 0,-56.5"/>
<text text-anchor="middle" x="26.5" y="-63.5" font-family="Helvetica,sans-Serif" font-size="10.00">client.h</text>
</a>
</g>
</g>
<!-- Node1&#45;&gt;Node2 -->
<g id="edge1" class="edge">
<title>Node1&#45;&gt;Node2</title>
<path fill="none" stroke="midnightblue" d="M54.48,-103.86C47.38,-94.5 38.9,-83.33 33.14,-75.75"/>
<polygon fill="midnightblue" stroke="midnightblue" points="51.89,-106.24 60.73,-112.08 57.47,-102 51.89,-106.24"/>
</g>
<!-- Node3 -->
<g id="node3" class="node">
<title>Node3</title>
<g id="a_node3"><a xlink:href="registrator_8h.html" target="_top" xlink:title="Contains structures and interface for server registrator. It&#39;s the data structure that link the Addre...">
<polygon fill="white" stroke="black" points="71.5,-56.5 71.5,-75.5 147.5,-75.5 147.5,-56.5 71.5,-56.5"/>
<text text-anchor="middle" x="109.5" y="-63.5" font-family="Helvetica,sans-Serif" font-size="10.00">registrator.h</text>
</a>
</g>
</g>
<!-- Node1&#45;&gt;Node3 -->
<g id="edge2" class="edge">
<title>Node1&#45;&gt;Node3</title>
<path fill="none" stroke="midnightblue" d="M80.61,-104.14C87.93,-94.74 96.74,-83.4 102.69,-75.75"/>
<polygon fill="midnightblue" stroke="midnightblue" points="77.81,-102.04 74.44,-112.08 83.34,-106.34 77.81,-102.04"/>
</g>
<!-- Node4 -->
<g id="node4" class="node">
<title>Node4</title>
<g id="a_node4"><a xlink:href="server_8h.html" target="_top" xlink:title="Contains structure and interface for server interaction.">
<polygon fill="white" stroke="black" points="81.5,-0.5 81.5,-19.5 137.5,-19.5 137.5,-0.5 81.5,-0.5"/>
<text text-anchor="middle" x="109.5" y="-7.5" font-family="Helvetica,sans-Serif" font-size="10.00">server.h</text>
</a>
</g>
</g>
<!-- Node3&#45;&gt;Node4 -->
<g id="edge3" class="edge">
<title>Node3&#45;&gt;Node4</title>
<path fill="none" stroke="midnightblue" d="M109.5,-45.8C109.5,-36.91 109.5,-26.78 109.5,-19.75"/>
<polygon fill="midnightblue" stroke="midnightblue" points="106,-46.08 109.5,-56.08 113,-46.08 106,-46.08"/>
</g>
</g>
</svg>
