<?xml version="1.0" encoding="UTF-8" standalone="no"?>
<!DOCTYPE svg PUBLIC "-//W3C//DTD SVG 1.1//EN"
 "http://www.w3.org/Graphics/SVG/1.1/DTD/svg11.dtd">
<!-- Generated by graphviz version 2.42.3 (0)
 -->
<!-- Title: Server Pages: 1 -->
<svg width="112pt" height="162pt"
 viewBox="0.00 0.00 111.50 162.00" xmlns="http://www.w3.org/2000/svg" xmlns:xlink="http://www.w3.org/1999/xlink">
<g id="graph0" class="graph" transform="scale(1 1) rotate(0) translate(4 158)">
<title>Server</title>
<polygon fill="white" stroke="transparent" points="-4,4 -4,-158 107.5,-158 107.5,4 -4,4"/>
<!-- Node1 -->
<g id="node1" class="node">
<title>Node1</title>
<g id="a_node1"><a xlink:title="The server structure.">
<polygon fill="#bfbfbf" stroke="black" points="24.5,-0.5 24.5,-19.5 72.5,-19.5 72.5,-0.5 24.5,-0.5"/>
<text text-anchor="middle" x="48.5" y="-7.5" font-family="Helvetica,sans-Serif" font-size="10.00">Server</text>
</a>
</g>
</g>
<!-- Node2 -->
<g id="node2" class="node">
<title>Node2</title>
<g id="a_node2"><a xlink:href="structRegistrator.html" target="_top" xlink:title="Registrator structure.">
<polygon fill="white" stroke="black" points="13,-67.5 13,-86.5 84,-86.5 84,-67.5 13,-67.5"/>
<text text-anchor="middle" x="48.5" y="-74.5" font-family="Helvetica,sans-Serif" font-size="10.00">Registrator</text>
</a>
</g>
</g>
<!-- Node2&#45;&gt;Node1 -->
<g id="edge1" class="edge">
<title>Node2&#45;&gt;Node1</title>
<path fill="none" stroke="#9a32cd" stroke-dasharray="5,2" d="M48.5,-57.04C48.5,-44.67 48.5,-29.12 48.5,-19.63"/>
<polygon fill="#9a32cd" stroke="#9a32cd" points="45,-57.23 48.5,-67.23 52,-57.23 45,-57.23"/>
<text text-anchor="middle" x="76" y="-41" font-family="Helvetica,sans-Serif" font-size="10.00"> registrator</text>
</g>
<!-- Node3 -->
<g id="node3" class="node">
<title>Node3</title>
<g id="a_node3"><a xlink:href="structConnectedClient.html" target="_top" xlink:title="The structure to represent connected client.">
<polygon fill="white" stroke="black" points="0,-134.5 0,-153.5 97,-153.5 97,-134.5 0,-134.5"/>
<text text-anchor="middle" x="48.5" y="-141.5" font-family="Helvetica,sans-Serif" font-size="10.00">ConnectedClient</text>
</a>
</g>
</g>
<!-- Node3&#45;&gt;Node2 -->
<g id="edge2" class="edge">
<title>Node3&#45;&gt;Node2</title>
<path fill="none" stroke="#9a32cd" stroke-dasharray="5,2" d="M48.5,-124.04C48.5,-111.67 48.5,-96.12 48.5,-86.63"/>
<polygon fill="#9a32cd" stroke="#9a32cd" points="45,-124.23 48.5,-134.23 52,-124.23 45,-124.23"/>
<text text-anchor="middle" x="66.5" y="-108" font-family="Helvetica,sans-Serif" font-size="10.00"> clients</text>
</g>
</g>
</svg>
